# xmcd
#
# Track frame offsets:
#	150
#	17082
#	38656
#	59284
#	82679
#	100147
#	121326
#	140351
#	158799
#	175832
#	196633
#	219767
#	237469
#	256984
#	278172
#	295930
#	312629
#
# Disc length: 4421 seconds
#
# Revision: 1
# Processed by: cddbd v1.5PL3 Copyright (c) Steve Scherf et al.
# Submitted via: dBpowerAMP V4.0
#
DISCID=e2114311
DTITLE=Nick Cave and The Bad Seeds - The Best of Nick Cave and The Bad Seeds
DYEAR=1999
DGENRE=Rock
TTITLE0=Deanna
TTITLE1=Red Right Hand
TTITLE2=Straight to You
TTITLE3=Tupelo
TTITLE4=Nobody's Baby Now
TTITLE5=Stranger Than Kindness
TTITLE6=Into My Arms
TTITLE7=The One That I've Been Waiting for?
TTITLE8=Brompton Oratory (live)
TTITLE9=Do You Love Me?
TTITLE10=The Mercy Seat (with P. J. Harvey)
TTITLE11=Henry Lee
TTITLE12=The Weeping Song
TTITLE13=The Ship Song
TTITLE14=Where The Wild Roses Grow
TTITLE15=Lime Tree Arbour (live)
TTITLE16=I Let Love in (live with P. J. Harvey)
EXTD=
EXTT0=
EXTT1=
EXTT2=
EXTT3=
EXTT4=
EXTT5=
EXTT6=
EXTT7=
EXTT8=
EXTT9=
EXTT10=
EXTT11=
EXTT12=
EXTT13=
EXTT14=
EXTT15=
EXTT16=
PLAYORDER=
